<svg viewBox="0 0 320 480" xmlns="http://www.w3.org/2000/svg">
  <path
    fill="#1847A7"
    d="M140 10h40v30h28v34h32c18 0 34 15 34 34v134c0 113-55 183-114 220C101 425 46 355 46 242V108c0-19 16-34 34-34h32V40h28V10Z"
  />
  <path fill="#FFF" d="M151 24h18v26h24v14h-24v20h-18V64h-24V50h24V24Z" />
  <path
    fill="#FFF"
    d="M82 102h156c10 0 18 8 18 18v119c0 99-46 159-96 194-50-35-96-95-96-194V120c0-10 8-18 18-18Z"
  />
  <path
    fill="#1847A7"
    d="M92 120h136c6 0 10 4 10 10v108c0 88-39 141-78 171-39-30-78-83-78-171V130c0-6 4-10 10-10Z"
  />
  <path
    fill="#FFF"
    d="M160 146c-13 17-23 36-30 58 7 19 13 39 17 61h-24v12h27v35h20v-35h27v-12h-24c4-22 10-42 17-61-7-22-17-41-30-58Zm0 26c6 10 10 21 14 32-4 13-8 28-12 43h-4c-4-15-8-30-12-43 4-11 8-22 14-32Z"
  />
  <path
    fill="#FFF"
    d="M119 208c-25 0-45 21-45 47 0 10 3 19 8 27h23c-7-6-11-15-11-25 0-17 12-30 28-30 9 0 18 4 23 12l10-14c-9-11-22-17-36-17Zm82 0c-14 0-27 6-36 17l10 14c5-8 14-12 23-12 16 0 28 13 28 30 0 10-4 19-11 25h23c5-8 8-17 8-27 0-26-20-47-45-47Z"
  />
  <path
    fill="#FFF"
    d="M80 318h160v12H80v-12Zm63 12h34c0 20 5 35 16 45-6 1-11 5-14 10 0 8 4 15 11 18-7 10-17 19-30 27-13-8-23-17-30-27 7-3 11-10 11-18-3-5-8-9-14-10 11-10 16-25 16-45Zm17 26c-4 10-10 17-18 22 4 3 7 8 8 13l10 11 10-11c1-5 4-10 8-13-8-5-14-12-18-22Z"
  />
</svg>
